Coordinates
version=1
nRows=22
nColumns=32
inDegrees=yes

Units are S.I. units (second, meters, Newtons, ...)
If the header above contains a line with 'inDegrees', this indicates whether rotational values are in degrees (yes) or radians (no).

endheader
time	pelvis_tilt	pelvis_list	pelvis_rotation	pelvis_tx	pelvis_ty	pelvis_tz	hip_flexion_r	hip_adduction_r	hip_rotation_r	knee_angle_r	ankle_angle_r	subtalar_angle_r	mtp_angle_r	hip_flexion_l	hip_adduction_l	hip_rotation_l	knee_angle_l	ankle_angle_l	subtalar_angle_l	mtp_angle_l	lumbar_extension	lumbar_bending	lumbar_rotation	arm_flex_r	arm_add_r	arm_rot_r	elbow_flex_r	arm_flex_l	arm_add_l	arm_rot_l	elbow_flex_l
      4.84000000	      4.09381303	     -3.12462768	     -0.21720172	      2.31498227	      0.84275198	     -0.24244646	     35.85497043	      1.73423128	     -3.92705579	    -50.38582105	      6.54405868	    -30.00007015	      0.00000000	    -10.86533057	     -6.34275674	      0.24480809	    -37.72983043	     23.56543018	    -23.65694479	      0.00000000	    -14.68866822	      6.49902181	     -1.92158598	      0.00000000	      0.00000000	      0.00000000	      0.00000000	      0.00000000	      0.00000000	      0.00000000	      0.00000000
      4.85000000	      4.16323496	     -2.85906883	     -1.92667131	      2.32644058	      0.84020624	     -0.23967082	     35.91868682	      3.01070119	     -1.60473543	    -52.03558010	      8.30078921	    -30.00007015	      0.00000000	    -11.82772021	     -5.58037832	     -1.05984995	    -38.22836923	     22.95436457	    -23.96225402	      0.00000000	    -14.96678963	      6.65711852	     -0.65712263	      0.00000000	      0.00000000	      0.00000000	      0.00000000	      0.00000000	      0.00000000	      0.00000000	      0.00000000
      4.86000000	      4.09900344	     -2.58075618	     -3.28135924	      2.33818238	      0.83820444	     -0.23711219	     35.80529397	      4.01978996	      0.33724817	    -53.30240836	      9.57596422	    -30.00007015	      0.00000000	    -12.52920126	     -4.80361011	     -1.77217190	    -38.72202315	     22.00873285	    -23.92586481	      0.00000000	    -14.96169804	      6.92284645	     -0.18040776	      0.00000000	      0.00000000	      0.00000000	      0.00000000	      0.00000000	      0.00000000	      0.00000000	      0.00000000
      4.87000000	      4.02906797	     -2.31909056	     -4.32239075	      2.34954912	      0.83685481	     -0.23554926	     35.56788443	      4.73053761	      1.89599237	    -54.31219996	     10.79357270	    -30.00007015	      0.00000000	    -12.88913064	     -3.89883460	     -1.64970558	    -39.50524087	     20.22004581	    -25.38252852	      0.00000000	    -15.05861786	      7.20250860	      0.80906087	      0.00000000	      0.00000000	      0.00000000	      0.00000000	      0.00000000	      0.00000000	      0.00000000	      0.00000000
      4.88000000	      3.67125850	     -2.14947386	     -4.99623051	      2.36046161	      0.83611441	     -0.23361239	     35.49220236	      5.33803063	      3.03919898	    -55.08332549	     11.89912604	    -30.00007015	      0.00000000	    -12.49376635	     -3.49512526	     -1.89788319	    -40.97345179	     18.85771118	    -24.98549321	      0.00000000	    -14.81549105	      7.74852899	      0.93345347	      0.00000000	      0.00000000	      0.00000000	      0.00000000	      0.00000000	      0.00000000	      0.00000000	      0.00000000
      4.89000000	      2.70152361	     -1.87708899	     -5.53781896	      2.37103479	      0.83482552	     -0.23289030	     36.15874981	      5.55989266	      3.73102565	    -55.84420976	     12.77558254	    -30.00007015	      0.00000000	    -11.01879978	     -2.84520222	     -1.51637212	    -42.91636531	     16.99810566	    -26.42715771	      0.00000000	    -13.95268433	      8.23810259	      1.30503227	      0.00000000	      0.00000000	      0.00000000	      0.00000000	      0.00000000	      0.00000000	      0.00000000	      0.00000000
      4.90000000	      2.69034627	     -2.00125800	     -5.91392744	      2.38146827	      0.83571728	     -0.23144902	     35.48042393	      6.02213220	      4.16537359	    -56.13801852	     13.51934497	    -30.00007015	      0.00000000	    -10.36568752	     -2.73989028	     -1.39499590	    -45.19430783	     15.16820973	    -25.95668490	      0.00000000	    -14.21092871	      8.96499567	      1.61441781	      0.00000000	      0.00000000	      0.00000000	      0.00000000	      0.00000000	      0.00000000	      0.00000000	      0.00000000
      4.91000000	      2.62842407	     -2.06618109	     -6.11216061	      2.39162743	      0.83698927	     -0.23066008	     34.73419463	      6.15595730	      4.24846291	    -56.13077044	     14.28051704	    -30.00007015	      0.00000000	     -9.33051543	     -2.62883040	     -1.21681814	    -47.72645954	     13.51236132	    -25.93165471	      0.00000000	    -14.52142281	      9.69913626	      1.73358936	      0.00000000	      0.00000000	      0.00000000	      0.00000000	      0.00000000	      0.00000000	      0.00000000	      0.00000000
      4.92000000	      2.65921966	     -2.06158933	     -6.16516176	      2.40124008	      0.83875209	     -0.22988644	     33.89640059	      6.11954690	      4.26261043	    -56.05920666	     14.82084063	    -30.00007015	      0.00000000	     -8.12193680	     -2.39560198	     -0.76887581	    -50.33728220	     11.94509447	    -25.79711594	      0.00000000	    -14.92848278	     10.26004137	      1.79459426	      0.00000000	      0.00000000	      0.00000000	      0.00000000	      0.00000000	      0.00000000	      0.00000000	      0.00000000
      4.93000000	      2.83699451	     -2.04439672	     -6.35381498	      2.41052720	      0.84064873	     -0.22860836	     32.92401275	      6.09781046	      4.28454306	    -55.98879732	     15.49790301	    -30.00007015	      0.00000000	     -6.95623604	     -2.27818083	     -0.90801999	    -52.91431975	     11.14388902	    -25.56437280	      0.00000000	    -15.57326529	     10.54224051	      2.17750750	      0.00000000	      0.00000000	      0.00000000	      0.00000000	      0.00000000	      0.00000000	      0.00000000	      0.00000000
      4.94000000	      1.05013144	     -0.60653836	     -6.86286027	      2.41741910	      0.83895188	     -0.22785599	     34.72217286	      5.08804089	      5.12003253	    -56.52780859	     15.85762175	    -30.00007015	      0.00000000	     -2.79270313	     -0.88624996	     -1.39679012	    -56.45613441	     12.05232450	    -23.95322597	      0.00000000	    -14.01659316	      9.48564704	      2.35270167	      0.00000000	      0.00000000	      0.00000000	      0.00000000	      0.00000000	      0.00000000	      0.00000000	      0.00000000
      4.95000000	      2.92031412	     -1.81873042	     -6.46809481	      2.42885631	      0.84484013	     -0.22568776	     31.11664751	      5.81368785	      4.26113188	    -55.48799289	     16.44789861	    -30.00007015	      0.00000000	     -3.59714480	     -2.23974524	     -1.45132682	    -58.60794451	     13.11148550	    -20.60375522	      0.00000000	    -16.40128096	     10.94056115	      2.90259258	      0.00000000	      0.00000000	      0.00000000	      0.00000000	      0.00000000	      0.00000000	      0.00000000	      0.00000000
      4.96000000	      2.04200462	     -1.35430601	     -6.26980259	      2.43692631	      0.84617603	     -0.22525623	     31.37261642	      5.13798084	      3.98340247	    -55.28154840	     16.64005408	    -30.00007015	      0.00000000	     -0.39567093	     -1.90988774	     -1.57182972	    -61.61474029	     15.13708509	    -16.99707975	      0.00000000	    -15.75209455	     10.74860190	      2.09961495	      0.00000000	      0.00000000	      0.00000000	      0.00000000	      0.00000000	      0.00000000	      0.00000000	      0.00000000
      4.97000000	      2.03502350	     -1.45161327	     -6.42346063	      2.44613797	      0.84888259	     -0.22356491	     30.32456517	      5.20050258	      3.90066629	    -54.69166342	     17.07805201	    -30.00007015	      0.00000000	      1.62660033	     -2.23665715	     -2.47056153	    -64.37694485	     16.37873539	    -14.84700473	      0.00000000	    -16.08620489	     10.95772959	      2.45016081	      0.00000000	      0.00000000	      0.00000000	      0.00000000	      0.00000000	      0.00000000	      0.00000000	      0.00000000
      4.98000000	      2.32151912	     -1.65042643	     -6.30777184	      2.45551425	      0.85252160	     -0.22111807	     28.81596233	      5.25495183	      3.55997271	    -53.87485693	     17.24827628	    -30.00007015	      0.00000000	      3.39481178	     -3.05289781	     -3.42442706	    -66.59999915	     16.64986150	    -15.14612602	      0.00000000	    -16.63476147	     11.18118186	      2.59035793	      0.00000000	      0.00000000	      0.00000000	      0.00000000	      0.00000000	      0.00000000	      0.00000000	      0.00000000
      4.99000000	      2.43627863	     -1.77387268	     -6.26365478	      2.46456607	      0.85573066	     -0.21909321	     27.55410441	      5.31082191	      3.44008135	    -53.12239543	     17.40475730	    -30.00007015	      0.00000000	      5.52273898	     -3.70602422	     -4.38899825	    -68.88948502	     17.22613323	    -16.15654060	      0.00000000	    -17.05522068	     11.30044351	      2.58608892	      0.00000000	      0.00000000	      0.00000000	      0.00000000	      0.00000000	      0.00000000	      0.00000000	      0.00000000
      5.00000000	      2.41936359	     -1.89032859	     -6.14033394	      2.47356029	      0.85864637	     -0.21714264	     26.44817801	      5.35262810	      3.26749701	    -52.37537112	     17.52105815	    -30.00007015	      0.00000000	      7.89794190	     -4.41420485	     -5.28731216	    -71.04818137	     17.61537691	    -17.20558135	      0.00000000	    -17.28341672	     11.47615288	      2.55971624	      0.00000000	      0.00000000	      0.00000000	      0.00000000	      0.00000000	      0.00000000	      0.00000000	      0.00000000
      5.01000000	      2.46435692	     -1.86410201	     -6.14487884	      2.48239585	      0.86161706	     -0.21514123	     25.33342107	      5.34601715	      3.33175826	    -51.68357205	     17.61154703	    -30.00007015	      0.00000000	     10.30080225	     -4.95679051	     -6.23914784	    -73.09725052	     18.02260058	    -18.08887341	      0.00000000	    -17.61753840	     11.33335481	      2.45645924	      0.00000000	      0.00000000	      0.00000000	      0.00000000	      0.00000000	      0.00000000	      0.00000000	      0.00000000
      5.02000000	      1.90329582	     -1.52208513	     -6.07479954	      2.49054484	      0.86361049	     -0.21363465	     25.08074899	      4.87224069	      3.07014154	    -51.17800902	     17.67812584	    -29.97940980	      0.00000000	     13.54679764	     -5.09024728	     -6.90120180	    -75.02832619	     18.54604321	    -18.28102127	      0.00000000	    -17.27657186	     11.06855630	      2.74844528	      0.00000000	      0.00000000	      0.00000000	      0.00000000	      0.00000000	      0.00000000	      0.00000000	      0.00000000
      5.03000000	      2.23677794	     -1.30119209	     -6.02374664	      2.49952528	      0.86670873	     -0.21185515	     23.71225637	      4.56360762	      3.11140944	    -50.57075481	     17.63151129	    -29.89741656	      0.00000000	     15.61900481	     -5.28007577	     -7.59705580	    -76.44315138	     18.63806659	    -18.37061129	      0.00000000	    -17.88089752	     10.62486241	      2.68611930	      0.00000000	      0.00000000	      0.00000000	      0.00000000	      0.00000000	      0.00000000	      0.00000000	      0.00000000
      5.04000000	      2.26824800	     -1.35388812	     -6.11872390	      2.50807131	      0.86926158	     -0.20940240	     22.68474561	      4.59261734	      2.98170882	    -49.95772648	     17.55261762	    -29.63439885	      0.00000000	     18.10762398	     -5.98316449	     -8.25621537	    -77.70644694	     18.29843796	    -17.81027201	      0.00000000	    -18.20806428	     10.46420681	      2.78978156	      0.00000000	      0.00000000	      0.00000000	      0.00000000	      0.00000000	      0.00000000	      0.00000000	      0.00000000
      5.05000000	      2.01437165	     -1.38677073	     -6.21838496	      2.51653846	      0.87118396	     -0.20719892	     22.00716964	      4.61495628	      2.90168047	    -49.40145494	     17.74079872	    -29.29577550	      0.00000000	     20.90718149	     -6.67748721	     -9.02459476	    -79.05683620	     19.57395186	    -15.71573064	      0.00000000	    -18.22068407	     10.34528924	      3.12035214	      0.00000000	      0.00000000	      0.00000000	      0.00000000	      0.00000000	      0.00000000	      0.00000000	      0.00000000
